<?xml version="1.0" encoding="UTF-8"?>
<svg version="1.1" xmlns="http://www.w3.org/2000/svg" width="512" height="512">
<path d="M0 0 C0.67337731 -0.00438225 1.34675462 -0.00876451 2.0405373 -0.01327956 C4.30192496 -0.02665741 6.56327366 -0.0328442 8.82469177 -0.03897095 C10.44435807 -0.04687292 12.06402261 -0.05514193 13.6836853 -0.06375122 C19.00858378 -0.08996747 24.33349009 -0.10528172 29.65843201 -0.11953735 C31.49294985 -0.12489781 33.32746765 -0.13027532 35.1619854 -0.13566971 C42.79596176 -0.15730075 50.42993602 -0.17603542 58.06393528 -0.1872921 C68.99467309 -0.20351689 79.92505461 -0.23665629 90.85565811 -0.29369295 C98.54583249 -0.33244795 106.23591181 -0.35193155 113.92618126 -0.35721266 C118.51641544 -0.36085944 123.10626959 -0.37280822 127.69639778 -0.4053154 C132.01967002 -0.4354929 136.34233423 -0.44167364 140.66568947 -0.42993164 C142.24665855 -0.42971169 143.82765663 -0.43795143 145.40852737 -0.45558548 C154.48488802 -0.55126183 161.64536413 0.04997126 169.40452576 5.15390015 C170.31202576 5.71077515 171.21952576 6.26765015 172.15452576 6.84140015 C179.13651822 14.01733684 181.64962889 21.49456205 181.73460388 31.30917358 C181.66164904 36.35035314 180.71915485 40.04852303 178.27952576 44.41952515 C177.17931173 46.27654041 177.17931173 46.27654041 177.40452576 49.15390015 C179.63706386 50.99175203 181.84445262 52.64055259 184.21702576 54.27890015 C185.59121534 55.25424238 186.96359458 56.23213992 188.33421326 57.2124939 C189.01967224 57.70217651 189.70513123 58.19185913 190.41136169 58.69638062 C194.90265902 61.98068304 199.14967173 65.57133075 203.40452576 69.15390015 C202.59202576 71.09140015 202.59202576 71.09140015 201.40452576 73.15390015 C199.91952576 73.64890015 199.91952576 73.64890015 198.40452576 74.15390015 C197.69549505 75.46519633 197.03220853 76.80177717 196.40452576 78.15390015 C195.49618112 79.20076068 194.55668786 80.22119465 193.59202576 81.21640015 C184.00605265 92.11487813 182.55018139 106.01040407 183.20921326 119.87753296 C184.14929905 130.83423291 190.32760567 140.98822313 197.40452576 149.15390015 C196.33733371 152.56891471 194.81624101 154.97758496 192.59202576 157.71640015 C183.47590101 169.44670773 182.30469786 182.88610549 183.40452576 197.15390015 C185.34598916 207.28279208 190.69072166 216.40720311 197.40452576 224.15390015 C196.33733371 227.56891471 194.81624101 229.97758496 192.59202576 232.71640015 C183.47590101 244.44670773 182.30469786 257.88610549 183.40452576 272.15390015 C185.34598916 282.28279208 190.69072166 291.40720311 197.40452576 299.15390015 C196.33733371 302.56891471 194.81624101 304.97758496 192.59202576 307.71640015 C187.04960722 314.8481887 183.49361271 323.88281958 183.08811951 332.91952515 C183.04622498 333.80897827 183.00433044 334.6984314 182.96116638 335.61483765 C182.92184998 336.53522827 182.88253357 337.4556189 182.84202576 338.40390015 C182.79884216 339.33975952 182.75565857 340.2756189 182.71116638 341.23983765 C182.60534526 343.54438656 182.50326019 345.84903854 182.40452576 348.15390015 C149.1808319 358.27447605 114.83711767 360.70796036 80.2888031 360.54501343 C76.63577698 360.52792277 72.98340721 360.53811697 69.33040333 360.55533504 C14.72444834 360.77303414 -45.38695808 354.34290315 -87.16188049 315.57577515 C-111.02706781 291.82550848 -119.82294484 260.55127975 -120.0309906 227.61230469 C-120.05875033 192.33396178 -112.37376902 159.34133234 -95.59547424 128.15390015 C-95.24227112 127.48761597 -94.88906799 126.82133179 -94.52516174 126.13485718 C-78.00776496 95.11275001 -53.80386592 68.62616126 -24.59547424 49.15390015 C-25.20427806 46.44088121 -25.94898143 44.40446491 -27.15797424 41.84140015 C-29.80988425 34.78283371 -29.94326339 26.28284149 -27.61109924 19.13827515 C-26.41641967 16.67517034 -25.113803 14.42917997 -23.59547424 12.15390015 C-23.03859924 11.24640015 -22.48172424 10.33890015 -21.90797424 9.40390015 C-15.63656038 3.30198396 -8.68483178 0.04004881 0 0 Z M65.40452576 95.15390015 C61.77907429 100.02950729 61.27363199 104.72391599 61.30686951 110.6734314 C61.31170349 112.20580444 61.31170349 112.20580444 61.31663513 113.76913452 C61.32501404 114.82423218 61.33339294 115.87932983 61.34202576 116.96640015 C61.34653748 118.04083374 61.35104919 119.11526733 61.35569763 120.22225952 C61.36744846 122.86619698 61.38387789 125.51001967 61.40452576 128.15390015 C60.52538513 128.41300171 59.64624451 128.67210327 58.74046326 128.9390564 C47.82018564 132.91587881 40.05312596 141.65517822 35.06077576 151.9156189 C30.39306229 163.60157297 30.35804659 175.35326552 35.27952576 186.96640015 C37.02407142 190.59117837 39.03477302 193.89549013 41.40452576 197.15390015 C41.94077576 197.95827515 42.47702576 198.76265015 43.02952576 199.59140015 C52.39274259 209.69381831 64.24516052 213.21841607 77.47898865 214.94003296 C82.20960616 215.63127476 85.04280268 216.73015265 88.40452576 220.15390015 C91.27943805 224.47929689 90.89571445 229.1469444 90.40452576 234.15390015 C89.05490891 238.44091836 87.83401568 239.83388805 84.21702576 242.52890015 C80.09069504 244.60947618 76.98490193 244.66283083 72.40452576 244.15390015 C67.17708416 242.34440113 64.90072707 240.06022687 62.40452576 235.15390015 C61.89095728 233.16245642 61.41474483 231.161174 60.96702576 229.15390015 C59.54983981 222.94600953 57.72272335 219.67115349 52.59202576 215.77890015 C47.56412727 214.34235772 43.20041381 214.42980725 38.59202576 216.84140015 C34.34041956 219.92589876 32.92545731 222.1903889 31.59202576 227.21640015 C31.02720246 239.0776893 35.05026549 248.68471346 41.59202576 258.40390015 C47.04787998 263.73851316 53.16193057 268.58225403 60.40452576 271.15390015 C60.47800232 272.54802124 60.47800232 272.54802124 60.55296326 273.9703064 C60.80779464 285.29152043 60.80779464 285.29152043 65.84202576 294.96640015 C70.45544958 298.90468878 72.99470988 299.59935895 78.89671326 299.4703064 C82.59674489 299.00347998 84.66266273 297.62826434 87.40452576 295.15390015 C90.59094497 290.86871569 91.44585227 287.11690964 91.33421326 281.8140564 C91.27651959 278.01863718 91.42308387 274.82779322 92.40452576 271.15390015 C94.92571673 268.93776431 97.33903142 267.86951769 100.41624451 266.5484314 C109.69923746 262.21636802 114.74840206 253.3361649 118.40452576 244.15390015 C121.86124841 233.86688358 121.87062212 222.57543787 117.61155701 212.55233765 C115.77402493 208.90106032 113.76084603 205.49266015 111.40452576 202.15390015 C110.84765076 201.30827515 110.29077576 200.46265015 109.71702576 199.59140015 C100.30147313 189.66689873 89.17289007 185.97752402 75.92015076 184.7437439 C70.78329312 183.88189334 67.4546198 182.40266063 64.09202576 178.40390015 C61.56933361 173.54538194 61.13016467 169.92200492 61.96702576 164.52890015 C63.9656298 159.83652544 66.79736686 157.45747959 71.40452576 155.15390015 C77.05340228 154.56641699 81.62473422 154.81916187 86.40452576 158.15390015 C89.69811055 161.8134388 90.61531233 164.84422769 91.27952576 169.59140015 C92.14715469 175.22714916 94.04280087 178.50095556 98.40452576 182.15390015 C102.21295203 184.6242307 105.81821183 184.3747341 110.18577576 183.76327515 C114.40149582 182.60543654 117.18908102 180.06686816 119.54124451 176.36483765 C122.47095382 168.86160022 120.64821194 159.90573504 117.66233826 152.7124939 C111.84862849 140.88646938 104.21030238 133.72586468 92.40452576 128.15390015 C92.37479675 127.1637793 92.37479675 127.1637793 92.34446716 126.15365601 C92.24859224 123.13253651 92.13916822 120.11205007 92.02952576 117.09140015 C91.99858826 116.0530603 91.96765076 115.01472046 91.93577576 113.94491577 C91.68443513 103.89676972 91.68443513 103.89676972 86.96702576 95.34140015 C82.35360193 91.40311151 79.81434163 90.70844134 73.91233826 90.8374939 C70.21230662 91.30432032 68.14638879 92.67953595 65.40452576 95.15390015 Z " fill="#000000" transform="translate(119.59547424316406,151.84609985351563)"/>
<path d="M0 0 C7.46290995 5.76973529 12.12338965 13.07317825 16.25 21.4375 C16.88813629 21.44336624 17.52627258 21.44923248 18.18374634 21.45527649 C24.83518984 21.51929028 31.48615309 21.60373101 38.13720703 21.69995117 C40.61826235 21.73317236 43.09939273 21.76121298 45.58056641 21.78393555 C49.15039001 21.8175322 52.71952745 21.86985283 56.2890625 21.92578125 C57.39553131 21.93217117 58.50200012 21.9385611 59.64199829 21.94514465 C66.65769974 22.0785931 71.52091102 22.63659289 76.625 27.875 C80.97078954 37.40230785 77.47333286 47.470117 74.234375 56.83984375 C73.82213684 58.07940323 73.40989868 59.31896271 72.98516846 60.59608459 C71.8975928 63.86625999 70.78912332 67.12894585 69.67547607 70.39031982 C68.55673708 73.67739274 67.45645125 76.97061761 66.35546875 80.26367188 C65.11006532 83.98778505 63.86185938 87.71083469 62.60003662 91.4294281 C62.21994446 92.55091751 61.83985229 93.67240692 61.44824219 94.82788086 C61.11959167 95.79318222 60.79094116 96.75848358 60.45233154 97.7530365 C58.64509409 103.29119314 56.96321821 108.86954081 55.25 114.4375 C1.13 114.4375 -52.99 114.4375 -108.75 114.4375 C-134.02304403 36.42071191 -134.02304403 36.42071191 -130.125 27.875 C-125.02091102 22.63659289 -120.15769974 22.0785931 -113.14199829 21.94514465 C-112.03552948 21.93875473 -110.92906067 21.93236481 -109.7890625 21.92578125 C-108.64335785 21.90783005 -107.4976532 21.88987885 -106.31723022 21.87138367 C-102.66985721 21.81734563 -99.0226146 21.78340482 -95.375 21.75 C-92.8971173 21.7168213 -90.41925179 21.68233113 -87.94140625 21.64648438 C-81.87772111 21.56162272 -75.81401896 21.49324514 -69.75 21.4375 C-69.24081528 20.40166023 -69.24081528 20.40166023 -68.72134399 19.34489441 C-68.27398895 18.44112564 -67.82663391 17.53735687 -67.36572266 16.60620117 C-66.92314117 15.70939133 -66.48055969 14.81258148 -66.02456665 13.88859558 C-60.94335351 4.11700845 -51.37737088 -2.72922162 -41.1875 -6.5 C-26.98286458 -10.12478735 -12.17114423 -8.10854616 0 0 Z " fill="#000000" transform="translate(222.75,7.5625)"/>
<path d="M0 0 C1.87353149 -0.01279495 1.87353149 -0.01279495 3.78491211 -0.02584839 C5.16139234 -0.02514942 6.53787247 -0.0242264 7.91435242 -0.02310181 C9.37007491 -0.02908898 10.82579423 -0.03589496 12.2815094 -0.04345703 C16.22998868 -0.06110614 20.17838123 -0.06581198 24.12689614 -0.0670886 C26.59592032 -0.0685115 29.06492255 -0.07278374 31.53394127 -0.07808304 C40.15376049 -0.09658045 48.77351791 -0.10475411 57.39335632 -0.10317993 C65.41807586 -0.10197894 73.44252625 -0.12307351 81.46717769 -0.15466726 C88.36502382 -0.18085325 95.26278218 -0.19154624 102.16067761 -0.19026911 C106.27679388 -0.18976011 110.39267096 -0.19540855 114.50873756 -0.21662521 C118.38221975 -0.23604667 122.25523556 -0.23610576 126.12873459 -0.22159195 C127.54604845 -0.21950749 128.9633918 -0.22418312 130.38065529 -0.23631287 C139.27852524 -0.307501 145.849069 -0.00140307 152.81938171 6.01351929 C153.48840515 6.85076538 153.48840515 6.85076538 154.17094421 7.70492554 C154.86317078 8.53830444 154.86317078 8.53830444 155.56938171 9.38851929 C159.63257675 15.61271296 159.48528319 22.05990661 158.79594421 29.26742554 C157.12169279 35.46315834 153.10700896 39.80032714 147.79594421 43.26742554 C143.9305601 45.10495471 140.85666294 45.52166184 136.59188843 45.53485107 C135.34286743 45.54338104 134.09384644 45.55191101 132.80697632 45.56069946 C131.43049609 45.5600005 130.05401596 45.55907747 128.67753601 45.55795288 C127.22181352 45.56394005 125.76609419 45.57074603 124.31037903 45.57830811 C120.36189975 45.59595722 116.41350719 45.60066305 112.46499228 45.60193968 C109.9959681 45.60336257 107.52696588 45.60763482 105.05794716 45.61293411 C96.43812793 45.63143153 87.81837052 45.63960518 79.1985321 45.63803101 C71.17381257 45.63683002 63.14936218 45.65792458 55.12471074 45.68951833 C48.22686461 45.71570432 41.32910625 45.72639731 34.43121082 45.72512019 C30.31509454 45.72461119 26.19921746 45.73025962 22.08315086 45.75147629 C18.20966867 45.77089774 14.33665286 45.77095684 10.46315384 45.75644302 C9.04583998 45.75435857 7.62849663 45.75903419 6.21123314 45.77116394 C-2.68663681 45.84235208 -9.25718057 45.53625415 -16.22749329 39.52133179 C-16.67350891 38.96316772 -17.11952454 38.40500366 -17.57905579 37.82992554 C-18.04054016 37.2743396 -18.50202454 36.71875366 -18.97749329 36.14633179 C-23.04068833 29.92213811 -22.89339476 23.47494446 -22.20405579 16.26742554 C-20.52980437 10.07169274 -16.51512053 5.73452393 -11.20405579 2.26742554 C-7.33867168 0.42989636 -4.26477451 0.01318923 0 0 Z " fill="#000000" transform="translate(353.2040557861328,466.7325744628906)"/>
<path d="M0 0 C1.87353149 -0.01279495 1.87353149 -0.01279495 3.78491211 -0.02584839 C5.16139234 -0.02514942 6.53787247 -0.0242264 7.91435242 -0.02310181 C9.37007491 -0.02908898 10.82579423 -0.03589496 12.2815094 -0.04345703 C16.22998868 -0.06110614 20.17838123 -0.06581198 24.12689614 -0.0670886 C26.59592032 -0.0685115 29.06492255 -0.07278374 31.53394127 -0.07808304 C40.15376049 -0.09658045 48.77351791 -0.10475411 57.39335632 -0.10317993 C65.41807586 -0.10197894 73.44252625 -0.12307351 81.46717769 -0.15466726 C88.36502382 -0.18085325 95.26278218 -0.19154624 102.16067761 -0.19026911 C106.27679388 -0.18976011 110.39267096 -0.19540855 114.50873756 -0.21662521 C118.38221975 -0.23604667 122.25523556 -0.23610576 126.12873459 -0.22159195 C127.54604845 -0.21950749 128.9633918 -0.22418312 130.38065529 -0.23631287 C139.27852524 -0.307501 145.849069 -0.00140307 152.81938171 6.01351929 C153.48840515 6.85076538 153.48840515 6.85076538 154.17094421 7.70492554 C154.86317078 8.53830444 154.86317078 8.53830444 155.56938171 9.38851929 C159.63257675 15.61271296 159.48528319 22.05990661 158.79594421 29.26742554 C157.12169279 35.46315834 153.10700896 39.80032714 147.79594421 43.26742554 C143.9305601 45.10495471 140.85666294 45.52166184 136.59188843 45.53485107 C135.34286743 45.54338104 134.09384644 45.55191101 132.80697632 45.56069946 C131.43049609 45.5600005 130.05401596 45.55907747 128.67753601 45.55795288 C127.22181352 45.56394005 125.76609419 45.57074603 124.31037903 45.57830811 C120.36189975 45.59595722 116.41350719 45.60066305 112.46499228 45.60193968 C109.9959681 45.60336257 107.52696588 45.60763482 105.05794716 45.61293411 C96.43812793 45.63143153 87.81837052 45.63960518 79.1985321 45.63803101 C71.17381257 45.63683002 63.14936218 45.65792458 55.12471074 45.68951833 C48.22686461 45.71570432 41.32910625 45.72639731 34.43121082 45.72512019 C30.31509454 45.72461119 26.19921746 45.73025962 22.08315086 45.75147629 C18.20966867 45.77089774 14.33665286 45.77095684 10.46315384 45.75644302 C9.04583998 45.75435857 7.62849663 45.75903419 6.21123314 45.77116394 C-2.68663681 45.84235208 -9.25718057 45.53625415 -16.22749329 39.52133179 C-16.67350891 38.96316772 -17.11952454 38.40500366 -17.57905579 37.82992554 C-18.04054016 37.2743396 -18.50202454 36.71875366 -18.97749329 36.14633179 C-23.04068833 29.92213811 -22.89339476 23.47494446 -22.20405579 16.26742554 C-20.52980437 10.07169274 -16.51512053 5.73452393 -11.20405579 2.26742554 C-7.33867168 0.42989636 -4.26477451 0.01318923 0 0 Z " fill="#000000" transform="translate(353.2040557861328,391.7325744628906)"/>
<path d="M0 0 C1.87353149 -0.01279495 1.87353149 -0.01279495 3.78491211 -0.02584839 C5.16139234 -0.02514942 6.53787247 -0.0242264 7.91435242 -0.02310181 C9.37007491 -0.02908898 10.82579423 -0.03589496 12.2815094 -0.04345703 C16.22998868 -0.06110614 20.17838123 -0.06581198 24.12689614 -0.0670886 C26.59592032 -0.0685115 29.06492255 -0.07278374 31.53394127 -0.07808304 C40.15376049 -0.09658045 48.77351791 -0.10475411 57.39335632 -0.10317993 C65.41807586 -0.10197894 73.44252625 -0.12307351 81.46717769 -0.15466726 C88.36502382 -0.18085325 95.26278218 -0.19154624 102.16067761 -0.19026911 C106.27679388 -0.18976011 110.39267096 -0.19540855 114.50873756 -0.21662521 C118.38221975 -0.23604667 122.25523556 -0.23610576 126.12873459 -0.22159195 C127.54604845 -0.21950749 128.9633918 -0.22418312 130.38065529 -0.23631287 C139.27852524 -0.307501 145.849069 -0.00140307 152.81938171 6.01351929 C153.48840515 6.85076538 153.48840515 6.85076538 154.17094421 7.70492554 C154.86317078 8.53830444 154.86317078 8.53830444 155.56938171 9.38851929 C159.63257675 15.61271296 159.48528319 22.05990661 158.79594421 29.26742554 C157.12169279 35.46315834 153.10700896 39.80032714 147.79594421 43.26742554 C143.9305601 45.10495471 140.85666294 45.52166184 136.59188843 45.53485107 C135.34286743 45.54338104 134.09384644 45.55191101 132.80697632 45.56069946 C131.43049609 45.5600005 130.05401596 45.55907747 128.67753601 45.55795288 C127.22181352 45.56394005 125.76609419 45.57074603 124.31037903 45.57830811 C120.36189975 45.59595722 116.41350719 45.60066305 112.46499228 45.60193968 C109.9959681 45.60336257 107.52696588 45.60763482 105.05794716 45.61293411 C96.43812793 45.63143153 87.81837052 45.63960518 79.1985321 45.63803101 C71.17381257 45.63683002 63.14936218 45.65792458 55.12471074 45.68951833 C48.22686461 45.71570432 41.32910625 45.72639731 34.43121082 45.72512019 C30.31509454 45.72461119 26.19921746 45.73025962 22.08315086 45.75147629 C18.20966867 45.77089774 14.33665286 45.77095684 10.46315384 45.75644302 C9.04583998 45.75435857 7.62849663 45.75903419 6.21123314 45.77116394 C-2.68663681 45.84235208 -9.25718057 45.53625415 -16.22749329 39.52133179 C-16.67350891 38.96316772 -17.11952454 38.40500366 -17.57905579 37.82992554 C-18.04054016 37.2743396 -18.50202454 36.71875366 -18.97749329 36.14633179 C-23.04068833 29.92213811 -22.89339476 23.47494446 -22.20405579 16.26742554 C-20.52980437 10.07169274 -16.51512053 5.73452393 -11.20405579 2.26742554 C-7.33867168 0.42989636 -4.26477451 0.01318923 0 0 Z " fill="#000000" transform="translate(353.2040557861328,316.7325744628906)"/>
<path d="M0 0 C1.87353149 -0.01279495 1.87353149 -0.01279495 3.78491211 -0.02584839 C5.16139234 -0.02514942 6.53787247 -0.0242264 7.91435242 -0.02310181 C9.37007491 -0.02908898 10.82579423 -0.03589496 12.2815094 -0.04345703 C16.22998868 -0.06110614 20.17838123 -0.06581198 24.12689614 -0.0670886 C26.59592032 -0.0685115 29.06492255 -0.07278374 31.53394127 -0.07808304 C40.15376049 -0.09658045 48.77351791 -0.10475411 57.39335632 -0.10317993 C65.41807586 -0.10197894 73.44252625 -0.12307351 81.46717769 -0.15466726 C88.36502382 -0.18085325 95.26278218 -0.19154624 102.16067761 -0.19026911 C106.27679388 -0.18976011 110.39267096 -0.19540855 114.50873756 -0.21662521 C118.38221975 -0.23604667 122.25523556 -0.23610576 126.12873459 -0.22159195 C127.54604845 -0.21950749 128.9633918 -0.22418312 130.38065529 -0.23631287 C139.27852524 -0.307501 145.849069 -0.00140307 152.81938171 6.01351929 C153.48840515 6.85076538 153.48840515 6.85076538 154.17094421 7.70492554 C154.86317078 8.53830444 154.86317078 8.53830444 155.56938171 9.38851929 C159.63257675 15.61271296 159.48528319 22.05990661 158.79594421 29.26742554 C157.12169279 35.46315834 153.10700896 39.80032714 147.79594421 43.26742554 C143.9305601 45.10495471 140.85666294 45.52166184 136.59188843 45.53485107 C135.34286743 45.54338104 134.09384644 45.55191101 132.80697632 45.56069946 C131.43049609 45.5600005 130.05401596 45.55907747 128.67753601 45.55795288 C127.22181352 45.56394005 125.76609419 45.57074603 124.31037903 45.57830811 C120.36189975 45.59595722 116.41350719 45.60066305 112.46499228 45.60193968 C109.9959681 45.60336257 107.52696588 45.60763482 105.05794716 45.61293411 C96.43812793 45.63143153 87.81837052 45.63960518 79.1985321 45.63803101 C71.17381257 45.63683002 63.14936218 45.65792458 55.12471074 45.68951833 C48.22686461 45.71570432 41.32910625 45.72639731 34.43121082 45.72512019 C30.31509454 45.72461119 26.19921746 45.73025962 22.08315086 45.75147629 C18.20966867 45.77089774 14.33665286 45.77095684 10.46315384 45.75644302 C9.04583998 45.75435857 7.62849663 45.75903419 6.21123314 45.77116394 C-2.68663681 45.84235208 -9.25718057 45.53625415 -16.22749329 39.52133179 C-16.67350891 38.96316772 -17.11952454 38.40500366 -17.57905579 37.82992554 C-18.04054016 37.2743396 -18.50202454 36.71875366 -18.97749329 36.14633179 C-23.04068833 29.92213811 -22.89339476 23.47494446 -22.20405579 16.26742554 C-20.52980437 10.07169274 -16.51512053 5.73452393 -11.20405579 2.26742554 C-7.33867168 0.42989636 -4.26477451 0.01318923 0 0 Z " fill="#000000" transform="translate(353.2040557861328,241.73257446289063)"/>
</svg>
